<svg width="25" height="25" viewBox="0 0 25 25" fill="none" xmlns="http://www.w3.org/2000/svg">
<path d="M21.5 16.7266V8.72656C21.4996 8.37584 21.4071 8.03137 21.2315 7.72773C21.056 7.42408 20.8037 7.17193 20.5 6.99656L13.5 2.99656C13.196 2.82103 12.8511 2.72861 12.5 2.72861C12.1489 2.72861 11.804 2.82103 11.5 2.99656L4.5 6.99656C4.19626 7.17193 3.94398 7.42408 3.76846 7.72773C3.59294 8.03137 3.50036 8.37584 3.5 8.72656V16.7266C3.50036 17.0773 3.59294 17.4218 3.76846 17.7254C3.94398 18.029 4.19626 18.2812 4.5 18.4566L11.5 22.4566C11.804 22.6321 12.1489 22.7245 12.5 22.7245C12.8511 22.7245 13.196 22.6321 13.5 22.4566L20.5 18.4566C20.8037 18.2812 21.056 18.029 21.2315 17.7254C21.4071 17.4218 21.4996 17.0773 21.5 16.7266Z" stroke="white" stroke-width="2" stroke-linecap="round" stroke-linejoin="round"/>
<path d="M3.76953 7.6875L12.4995 12.7375L21.2295 7.6875" stroke="white" stroke-width="2" stroke-linecap="round" stroke-linejoin="round"/>
<path d="M12.5 22.8066V12.7266" stroke="white" stroke-width="2" stroke-linecap="round" stroke-linejoin="round"/>
</svg>
