<svg width="25" height="25" viewBox="0 0 25 25" fill="none" xmlns="http://www.w3.org/2000/svg">
<path d="M12.5 22.7266C18.0228 22.7266 22.5 18.2494 22.5 12.7266C22.5 7.20371 18.0228 2.72656 12.5 2.72656C6.97715 2.72656 2.5 7.20371 2.5 12.7266C2.5 18.2494 6.97715 22.7266 12.5 22.7266Z" stroke="white" stroke-width="2" stroke-linecap="round" stroke-linejoin="round"/>
<path d="M9.58984 9.72713C9.82495 9.0588 10.289 8.49524 10.8998 8.13626C11.5106 7.77729 12.2287 7.64607 12.927 7.76584C13.6253 7.88562 14.2587 8.24866 14.7149 8.79066C15.1712 9.33266 15.4209 10.0187 15.4198 10.7271C15.4198 12.7271 12.4198 13.7271 12.4198 13.7271" stroke="white" stroke-width="2" stroke-linecap="round" stroke-linejoin="round"/>
<path d="M12.5 17.7266H12.51" stroke="white" stroke-width="2" stroke-linecap="round" stroke-linejoin="round"/>
</svg>
