<svg width="25" height="25" viewBox="0 0 25 25" fill="none" xmlns="http://www.w3.org/2000/svg">
<g clip-path="url(#clip0_2_327)">
<path d="M21.875 3.87689C21.6171 3.71007 21.3222 3.60914 21.0162 3.58298C20.7102 3.55683 20.4024 3.60625 20.12 3.72689L10.865 7.37189C10.6459 7.46107 10.4116 7.50691 10.175 7.50689H4.25C3.75272 7.50689 3.27581 7.70444 2.92417 8.05607C2.57254 8.4077 2.375 8.88461 2.375 9.38189V9.53189H0.5V14.0319H2.375V14.2269C2.38675 14.7163 2.58947 15.1818 2.93983 15.5237C3.2902 15.8657 3.76042 16.057 4.25 16.0569L6.5 20.8269C6.65236 21.1481 6.89222 21.4198 7.19204 21.6109C7.49187 21.8019 7.83949 21.9045 8.195 21.9069H9.14C9.63468 21.9029 10.1077 21.7036 10.4561 21.3524C10.8045 21.0012 11 20.5266 11 20.0319V16.2369L20.12 19.8819C20.3443 19.9712 20.5836 20.017 20.825 20.0169C21.1996 20.0109 21.5643 19.8962 21.875 19.6869C22.1217 19.5203 22.3252 19.2974 22.4687 19.0365C22.6121 18.7757 22.6914 18.4845 22.7 18.1869V5.42189C22.6986 5.11667 22.6228 4.81639 22.479 4.54714C22.3352 4.2779 22.1279 4.04782 21.875 3.87689ZM9.125 9.38189V14.2269H4.25V9.38189H9.125ZM9.125 20.0319H8.18L6.335 16.0569H9.125V20.0319ZM11.555 14.4519C11.3769 14.3609 11.1912 14.2856 11 14.2269V9.27689C11.1894 9.23782 11.375 9.18262 11.555 9.11189L20.825 5.42189V18.1419L11.555 14.4519ZM22.745 9.90689V13.6569C23.2423 13.6569 23.7192 13.4593 24.0708 13.1077C24.4225 12.7561 24.62 12.2792 24.62 11.7819C24.62 11.2846 24.4225 10.8077 24.0708 10.4561C23.7192 10.1044 23.2423 9.90689 22.745 9.90689Z" fill="white"/>
</g>
<defs>
<clipPath id="clip0_2_327">
<rect width="24" height="24" fill="white" transform="translate(0.5 0.726562)"/>
</clipPath>
</defs>
</svg>
