<svg width="25" height="25" viewBox="0 0 25 25" fill="none" xmlns="http://www.w3.org/2000/svg">
<g clip-path="url(#clip0_2_333)">
<path d="M12.5 15.7266C14.1569 15.7266 15.5 14.3834 15.5 12.7266C15.5 11.0697 14.1569 9.72656 12.5 9.72656C10.8431 9.72656 9.5 11.0697 9.5 12.7266C9.5 14.3834 10.8431 15.7266 12.5 15.7266Z" stroke="white" stroke-width="2" stroke-linecap="round" stroke-linejoin="round"/>
<path d="M19.9 15.7266C19.7669 16.0282 19.7272 16.3628 19.786 16.6872C19.8448 17.0115 19.9995 17.3109 20.23 17.5466L20.29 17.6066C20.476 17.7923 20.6235 18.0129 20.7241 18.2557C20.8248 18.4985 20.8766 18.7587 20.8766 19.0216C20.8766 19.2844 20.8248 19.5446 20.7241 19.7874C20.6235 20.0302 20.476 20.2508 20.29 20.4366C20.1043 20.6225 19.8837 20.77 19.6409 20.8707C19.3981 20.9713 19.1378 21.0231 18.875 21.0231C18.6122 21.0231 18.3519 20.9713 18.1091 20.8707C17.8663 20.77 17.6457 20.6225 17.46 20.4366L17.4 20.3766C17.1643 20.146 16.865 19.9914 16.5406 19.9326C16.2162 19.8737 15.8816 19.9134 15.58 20.0466C15.2842 20.1733 15.032 20.3838 14.8543 20.6521C14.6766 20.9204 14.5813 21.2348 14.58 21.5566V21.7266C14.58 22.257 14.3693 22.7657 13.9942 23.1408C13.6191 23.5158 13.1104 23.7266 12.58 23.7266C12.0496 23.7266 11.5409 23.5158 11.1658 23.1408C10.7907 22.7657 10.58 22.257 10.58 21.7266V21.6366C10.5723 21.3056 10.4651 20.9846 10.2725 20.7153C10.0799 20.446 9.81074 20.2408 9.5 20.1266C9.19838 19.9934 8.86381 19.9537 8.53941 20.0126C8.21502 20.0714 7.91568 20.226 7.68 20.4566L7.62 20.5166C7.43425 20.7025 7.21368 20.85 6.97088 20.9507C6.72808 21.0513 6.46783 21.1031 6.205 21.1031C5.94217 21.1031 5.68192 21.0513 5.43912 20.9507C5.19632 20.85 4.97575 20.7025 4.79 20.5166C4.60405 20.3308 4.45653 20.1102 4.35588 19.8674C4.25523 19.6246 4.20343 19.3644 4.20343 19.1016C4.20343 18.8387 4.25523 18.5785 4.35588 18.3357C4.45653 18.0929 4.60405 17.8723 4.79 17.6866L4.85 17.6266C5.08054 17.3909 5.23519 17.0915 5.294 16.7672C5.35282 16.4428 5.31312 16.1082 5.18 15.8066C5.05324 15.5108 4.84276 15.2585 4.57447 15.0809C4.30618 14.9032 3.99179 14.8078 3.67 14.8066H3.5C2.96957 14.8066 2.46086 14.5958 2.08579 14.2208C1.71071 13.8457 1.5 13.337 1.5 12.8066C1.5 12.2761 1.71071 11.7674 2.08579 11.3923C2.46086 11.0173 2.96957 10.8066 3.5 10.8066H3.59C3.92099 10.7988 4.242 10.6917 4.5113 10.4991C4.78059 10.3065 4.98572 10.0373 5.1 9.72656C5.23312 9.42495 5.27282 9.09037 5.214 8.76597C5.15519 8.44158 5.00054 8.14224 4.77 7.90656L4.71 7.84656C4.52405 7.66082 4.37653 7.44024 4.27588 7.19744C4.17523 6.95465 4.12343 6.69439 4.12343 6.43156C4.12343 6.16873 4.17523 5.90848 4.27588 5.66568C4.37653 5.42289 4.52405 5.20231 4.71 5.01656C4.89575 4.83061 5.11632 4.68309 5.35912 4.58244C5.60192 4.48179 5.86217 4.42999 6.125 4.42999C6.38783 4.42999 6.64808 4.48179 6.89088 4.58244C7.13368 4.68309 7.35425 4.83061 7.54 5.01656L7.6 5.07656C7.83568 5.3071 8.13502 5.46175 8.45941 5.52057C8.78381 5.57939 9.11838 5.53968 9.42 5.40656H9.5C9.79577 5.2798 10.048 5.06932 10.2257 4.80103C10.4034 4.53274 10.4987 4.21835 10.5 3.89656V3.72656C10.5 3.19613 10.7107 2.68742 11.0858 2.31235C11.4609 1.93728 11.9696 1.72656 12.5 1.72656C13.0304 1.72656 13.5391 1.93728 13.9142 2.31235C14.2893 2.68742 14.5 3.19613 14.5 3.72656V3.81656C14.5013 4.13835 14.5966 4.45274 14.7743 4.72103C14.952 4.98932 15.2042 5.1998 15.5 5.32656C15.8016 5.45968 16.1362 5.49939 16.4606 5.44057C16.785 5.38175 17.0843 5.2271 17.32 4.99656L17.38 4.93656C17.5657 4.75061 17.7863 4.60309 18.0291 4.50244C18.2719 4.40179 18.5322 4.34999 18.795 4.34999C19.0578 4.34999 19.3181 4.40179 19.5609 4.50244C19.8037 4.60309 20.0243 4.75061 20.21 4.93656C20.396 5.12231 20.5435 5.34289 20.6441 5.58568C20.7448 5.82848 20.7966 6.08873 20.7966 6.35156C20.7966 6.61439 20.7448 6.87465 20.6441 7.11744C20.5435 7.36024 20.396 7.58082 20.21 7.76656L20.15 7.82656C19.9195 8.06224 19.7648 8.36158 19.706 8.68597C19.6472 9.01037 19.6869 9.34495 19.82 9.64656V9.72656C19.9468 10.0223 20.1572 10.2746 20.4255 10.4523C20.6938 10.6299 21.0082 10.7253 21.33 10.7266H21.5C22.0304 10.7266 22.5391 10.9373 22.9142 11.3123C23.2893 11.6874 23.5 12.1961 23.5 12.7266C23.5 13.257 23.2893 13.7657 22.9142 14.1408C22.5391 14.5158 22.0304 14.7266 21.5 14.7266H21.41C21.0882 14.7278 20.7738 14.8232 20.5055 15.0009C20.2372 15.1785 20.0268 15.4308 19.9 15.7266V15.7266Z" stroke="white" stroke-width="2" stroke-linecap="round" stroke-linejoin="round"/>
</g>
<defs>
<clipPath id="clip0_2_333">
<rect width="24" height="24" fill="white" transform="translate(0.5 0.726562)"/>
</clipPath>
</defs>
</svg>
