<svg width="25" height="25" viewBox="0 0 25 25" fill="none" xmlns="http://www.w3.org/2000/svg">
<path d="M6.5 2.72656L3.5 6.72656V20.7266C3.5 21.257 3.71071 21.7657 4.08579 22.1408C4.46086 22.5158 4.96957 22.7266 5.5 22.7266H19.5C20.0304 22.7266 20.5391 22.5158 20.9142 22.1408C21.2893 21.7657 21.5 21.257 21.5 20.7266V6.72656L18.5 2.72656H6.5Z" stroke="white" stroke-width="2" stroke-linecap="round" stroke-linejoin="round"/>
<path d="M3.5 6.72656H21.5" stroke="white" stroke-width="2" stroke-linecap="round" stroke-linejoin="round"/>
<path d="M16.5 10.7266C16.5 11.7874 16.0786 12.8048 15.3284 13.555C14.5783 14.3051 13.5609 14.7266 12.5 14.7266C11.4391 14.7266 10.4217 14.3051 9.67157 13.555C8.92143 12.8048 8.5 11.7874 8.5 10.7266" stroke="white" stroke-width="2" stroke-linecap="round" stroke-linejoin="round"/>
</svg>
