<svg width="25" height="25" viewBox="0 0 25 25" fill="none" xmlns="http://www.w3.org/2000/svg">
<g clip-path="url(#clip0_2_322)">
<path d="M17.5 21.7266V19.7266C17.5 18.6657 17.0786 17.6483 16.3284 16.8981C15.5783 16.148 14.5609 15.7266 13.5 15.7266H5.5C4.43913 15.7266 3.42172 16.148 2.67157 16.8981C1.92143 17.6483 1.5 18.6657 1.5 19.7266V21.7266" stroke="white" stroke-width="2" stroke-linecap="round" stroke-linejoin="round"/>
<path d="M9.5 11.7266C11.7091 11.7266 13.5 9.9357 13.5 7.72656C13.5 5.51742 11.7091 3.72656 9.5 3.72656C7.29086 3.72656 5.5 5.51742 5.5 7.72656C5.5 9.9357 7.29086 11.7266 9.5 11.7266Z" stroke="white" stroke-width="2" stroke-linecap="round" stroke-linejoin="round"/>
<path d="M23.5 21.7274V19.7274C23.4993 18.8411 23.2044 17.9802 22.6614 17.2797C22.1184 16.5793 21.3581 16.079 20.5 15.8574" stroke="white" stroke-width="2" stroke-linecap="round" stroke-linejoin="round"/>
<path d="M16.5 3.85742C17.3604 4.07772 18.123 4.57812 18.6676 5.27973C19.2122 5.98134 19.5078 6.84425 19.5078 7.73242C19.5078 8.62059 19.2122 9.4835 18.6676 10.1851C18.123 10.8867 17.3604 11.3871 16.5 11.6074" stroke="white" stroke-width="2" stroke-linecap="round" stroke-linejoin="round"/>
</g>
<defs>
<clipPath id="clip0_2_322">
<rect width="24" height="24" fill="white" transform="translate(0.5 0.726562)"/>
</clipPath>
</defs>
</svg>
